<svg width="32" height="32" viewBox="0 0 32 32" fill="none" xmlns="http://www.w3.org/2000/svg">
<circle cx="16" cy="16" r="16" fill="#F39505"/>
<path d="M15.3057 10.4445H10.4446C10.0762 10.4445 9.72293 10.5908 9.46246 10.8512C9.20199 11.1117 9.05566 11.465 9.05566 11.8333V21.5556C9.05566 21.9239 9.20199 22.2772 9.46246 22.5377C9.72293 22.7981 10.0762 22.9445 10.4446 22.9445H20.1668C20.5351 22.9445 20.8884 22.7981 21.1489 22.5377C21.4093 22.2772 21.5557 21.9239 21.5557 21.5556V16.6945M20.514 9.40279C20.7903 9.12652 21.165 8.97131 21.5557 8.97131C21.9464 8.97131 22.3211 9.12652 22.5973 9.40279C22.8736 9.67905 23.0288 10.0538 23.0288 10.4445C23.0288 10.8352 22.8736 11.2099 22.5973 11.4861L16.0001 18.0833L13.2223 18.7778L13.9168 16L20.514 9.40279Z" stroke="white" stroke-width="1.5" stroke-linecap="round" stroke-linejoin="round"/>
</svg>
