<svg width="24" height="24" viewBox="0 0 24 24" fill="none" xmlns="http://www.w3.org/2000/svg">
<path d="M11.2464 2.42997C13.1845 2.27717 15.1234 2.71644 16.8065 3.68967C18.4895 4.6629 19.8374 6.12422 20.6718 7.88025C21.5062 9.63629 21.7878 11.6043 21.4792 13.5238C21.1707 15.4434 20.2866 17.224 18.9439 18.6301C17.6012 20.0362 15.8633 21.0015 13.96 21.3982C12.0567 21.795 10.0778 21.6045 8.28518 20.852C6.49252 20.0995 4.97059 18.8205 3.92077 17.1841C2.87095 15.5477 2.34271 13.6311 2.40596 11.688C2.41312 11.4493 2.51481 11.2232 2.68866 11.0595C2.8625 10.8958 3.09427 10.8078 3.33296 10.815C3.57166 10.8221 3.79773 10.9238 3.96145 11.0977C4.12517 11.2715 4.21312 11.5033 4.20596 11.742C4.14515 13.5814 4.73672 15.3831 5.87608 16.8284C7.01543 18.2738 8.62917 19.2697 10.4319 19.6401C12.2347 20.0105 14.1104 19.7315 15.7273 18.8524C17.3442 17.9733 18.5982 16.5508 19.2676 14.8364C19.9369 13.122 19.9785 11.2262 19.3849 9.48409C18.7913 7.742 17.6009 6.26591 16.024 5.31683C14.4472 4.36775 12.5855 4.00681 10.7683 4.29784C8.95099 4.58888 7.29516 5.51313 6.09356 6.90717L5.84876 7.20477H8.10116L8.22356 7.21437C8.43898 7.24401 8.63638 7.35064 8.77927 7.51454C8.92216 7.67844 9.00089 7.88853 9.00089 8.10597C9.00089 8.32342 8.92216 8.53351 8.77927 8.69741C8.63638 8.86131 8.43898 8.96793 8.22356 8.99757L8.10116 9.00597H3.90356L3.78116 8.99757C3.58658 8.97085 3.40608 8.88122 3.2672 8.74233C3.12832 8.60345 3.03868 8.42295 3.01196 8.22837L3.00356 8.10597V3.30597L3.01196 3.18357C3.03868 2.98899 3.12832 2.80849 3.2672 2.66961C3.40608 2.53073 3.58658 2.44109 3.78116 2.41437L3.90356 2.40597L4.02596 2.41437C4.22054 2.44109 4.40104 2.53073 4.53992 2.66961C4.67881 2.80849 4.76844 2.98899 4.79516 3.18357L4.80356 3.30597L4.80236 5.64957C6.44942 3.77871 8.76126 2.62287 11.2464 2.42997ZM11.7 7.20477L11.8224 7.21317C12.0169 7.23989 12.1974 7.32953 12.3363 7.46841C12.4752 7.60729 12.5648 7.78779 12.5916 7.98237L12.6 8.10477V11.9988L14.7 12L14.8224 12.0084C15.0387 12.037 15.2372 12.1433 15.381 12.3074C15.5248 12.4716 15.6041 12.6824 15.6041 12.9006C15.6041 13.1188 15.5248 13.3296 15.381 13.4937C15.2372 13.6578 15.0387 13.7641 14.8224 13.7928L14.7 13.8H11.7L11.5776 13.7928C11.3828 13.766 11.2022 13.6762 11.0633 13.5371C10.9244 13.3979 10.8348 13.2172 10.8084 13.0224L10.8 12.9V8.10477L10.8084 7.98237C10.8351 7.78779 10.9247 7.60729 11.0636 7.46841C11.2025 7.32953 11.383 7.23989 11.5776 7.21317L11.7 7.20477Z" fill="#F39505"/>
</svg>
