<svg width="24" height="24" viewBox="0 0 24 24" fill="none" xmlns="http://www.w3.org/2000/svg">
<path d="M20 12V5.33333C20 4.97971 19.8595 4.64057 19.6095 4.39052C19.3594 4.14048 19.0203 4 18.6667 4H5.33333C4.97971 4 4.64057 4.14048 4.39052 4.39052C4.14048 4.64057 4 4.97971 4 5.33333V18.6667C4 19.0203 4.14048 19.3594 4.39052 19.6095C4.64057 19.8595 4.97971 20 5.33333 20H12" stroke="#F39505" stroke-width="1.5" stroke-linecap="round" stroke-linejoin="round"/>
<path d="M15.5556 18.2222C16.2628 18.2222 16.9411 17.9413 17.4412 17.4412C17.9413 16.9411 18.2222 16.2628 18.2222 15.5556C18.2222 14.8483 17.9413 14.1701 17.4412 13.67C16.9411 13.1699 16.2628 12.8889 15.5556 12.8889C14.8483 12.8889 14.1701 13.1699 13.67 13.67C13.1699 14.1701 12.8889 14.8483 12.8889 15.5556C12.8889 16.2628 13.1699 16.9411 13.67 17.4412C14.1701 17.9413 14.8483 18.2222 15.5556 18.2222Z" stroke="#F39505" stroke-width="1.5"/>
<path d="M17.7779 17.3333L20.0001 19.1111M7.55566 8.44446H16.4446M7.55566 12H11.1112" stroke="#F39505" stroke-width="1.5" stroke-linecap="round" stroke-linejoin="round"/>
</svg>
